<svg width="96" height="96" xmlns="http://www.w3.org/2000/svg" xmlns:xlink="http://www.w3.org/1999/xlink" xml:space="preserve" overflow="hidden"><g transform="translate(-402 -285)"><path d="M476.8 306.1C462 291.3 437.9 291.3 423.1 306.1 408.3 321 408.3 345 423.1 359.9 438 374.7 462 374.6 476.8 359.8 491.6 344.9 491.6 321 476.8 306.1 476.8 306.1 476.8 306.1 476.8 306.1ZM448 369C439.5 368.6 431.4 365.1 425.2 359.2L450 334.4 458.5 342.9C451.8 349.9 448 359.3 448 369L448 369ZM459.9 344.3 474.7 359.1C468.1 365.5 459.2 369 450 369 450 359.8 453.6 351 459.9 344.3ZM461.3 342.9C467.9 336.6 476.8 333 486 333.1 486 342.3 482.5 351.1 476.2 357.8L461.3 342.9ZM485.9 331.1C476.2 331.1 466.9 334.9 459.9 341.5L451.4 333 476.1 308.3C482 314.5 485.5 322.6 485.9 331.1ZM437.9 322.4C431.4 328.6 422.9 332.1 414 332.2 414.2 323.3 417.7 314.7 423.8 308.3L437.9 322.4ZM425.2 306.9C431.7 300.7 440.2 297.2 449.1 297.1 449 306 445.5 314.5 439.3 321L425.2 306.9ZM451.2 297C460 297.3 468.4 300.8 474.7 306.8L450 331.6 440.8 322.4C447.3 315.5 451 306.5 451.2 297ZM414 334.2C423.5 334 432.5 330.3 439.3 323.8L448.5 333 423.8 357.7C417.8 351.4 414.3 343 414 334.2Z"/></g></svg>