<svg width="88" height="88" xmlns="http://www.w3.org/2000/svg" xmlns:xlink="http://www.w3.org/1999/xlink" xml:space="preserve" overflow="hidden"><g transform="translate(-339 -363)"><path d="M405.917 438.167 360.083 438.167 360.083 381.333 370.167 381.333 370.167 386.833 395.833 386.833 395.833 381.333 405.917 381.333ZM383 374C384.519 374 385.75 375.231 385.75 376.75 385.75 378.269 384.519 379.5 383 379.5 381.481 379.5 380.25 378.269 380.25 376.75 380.225 375.256 381.416 374.025 382.909 374 382.94 373.999 382.97 373.999 383 374ZM407.75 375.833 392.167 375.833 392.167 374C392.167 371.975 390.525 370.333 388.5 370.333L377.5 370.333C375.475 370.333 373.833 371.975 373.833 374L373.833 375.833 358.25 375.833C356.225 375.833 354.583 377.475 354.583 379.5L354.583 440C354.583 442.025 356.225 443.667 358.25 443.667L407.75 443.667C409.775 443.667 411.417 442.025 411.417 440L411.417 379.5C411.417 377.475 409.775 375.833 407.75 375.833Z" fill="#FFFFFF"/><path d="M384.833 394.167 400.417 394.167 400.417 397.833 384.833 397.833Z" fill="#FFFFFF"/><path d="M384.833 405.167 400.417 405.167 400.417 408.833 384.833 408.833Z" fill="#FFFFFF"/><path d="M384.833 416.167 400.417 416.167 400.417 419.833 384.833 419.833Z" fill="#FFFFFF"/><path d="M384.833 427.167 400.417 427.167 400.417 430.833 384.833 430.833Z" fill="#FFFFFF"/><path d="M367.875 414.792 374.292 414.792 374.292 421.208 367.875 421.208Z" fill="#FFFFFF"/><path d="M367.875 425.792 374.292 425.792 374.292 432.208 367.875 432.208Z" fill="#FFFFFF"/><path d="M366.231 395.817 368.15 393.898 370.533 396.281 376.583 390.231 378.502 392.15 370.533 400.119 366.231 395.817Z" fill="#FFFFFF"/><path d="M366.231 406.817 368.15 404.898 370.533 407.281 376.583 401.231 378.502 403.15 370.533 411.119 366.231 406.817Z" fill="#FFFFFF"/></g></svg>