<svg width="137" height="137" xmlns="http://www.w3.org/2000/svg" xmlns:xlink="http://www.w3.org/1999/xlink" xml:space="preserve" overflow="hidden"><defs><clipPath id="clip0"><path d="M381.062 334.094 312.422 401.211 245.306 332.571 313.945 265.455Z" fill-rule="evenodd" clip-rule="evenodd"/></clipPath><clipPath id="clip1"><path d="M381.062 334.094 312.422 401.211 245.306 332.571 313.945 265.455Z" fill-rule="evenodd" clip-rule="evenodd"/></clipPath><clipPath id="clip2"><path d="M381.062 334.094 312.422 401.211 245.306 332.571 313.945 265.455Z" fill-rule="evenodd" clip-rule="evenodd"/></clipPath></defs><g transform="translate(-245 -265)"><g clip-path="url(#clip0)"><g clip-path="url(#clip1)"><g clip-path="url(#clip2)"><path d="M286.851 366.477C291.85 366.841 296.874 366.708 301.847 366.08L309.003 364.816C317.58 363.003 326.459 359.496 332.751 353.344 339.043 347.192 342.748 338.394 344.753 329.86L346.177 322.734C346.917 317.776 347.162 312.757 346.91 307.75 346.632 303.749 343.494 300.539 339.5 300.171 334.5 299.807 329.477 299.94 324.504 300.569L317.277 301.761C308.7 303.574 299.822 307.081 293.53 313.233 287.238 319.385 283.533 328.183 281.528 336.717L280.244 343.986C279.504 348.944 279.258 353.963 279.51 358.97 279.664 362.987 282.838 366.233 286.851 366.477ZM307.219 363.106 302.447 363.947 282.369 343.413 283.224 338.567ZM344.01 323.379 343.062 328.13 318.98 303.502 323.797 302.707ZM339.3 302.16C342.326 302.417 344.712 304.845 344.914 307.876 345.138 312.228 344.964 316.592 344.396 320.913L326.282 302.388C330.605 301.917 334.963 301.84 339.3 302.16ZM316.621 303.95 342.548 330.466C340.888 337.064 337.629 345.785 331.357 351.918 325.055 358.081 316.216 361.14 309.57 362.647L283.707 336.197C285.359 329.59 288.62 320.819 294.922 314.656 301.194 308.523 309.986 305.461 316.621 303.95ZM281.503 358.848C281.281 354.527 281.45 350.196 282.009 345.906L299.968 364.272C295.662 364.736 291.324 364.809 287.005 364.49 283.977 364.336 281.578 361.877 281.501 358.846Z"/><path d="M306.609 349.552C307.004 349.166 307.011 348.533 306.625 348.138L303.129 344.563 307.419 340.368 310.915 343.943C311.301 344.338 311.934 344.345 312.329 343.959 312.724 343.573 312.731 342.94 312.345 342.545L308.849 338.97 313.139 334.775 316.635 338.35C317.021 338.745 317.654 338.752 318.049 338.366 318.444 337.98 318.451 337.346 318.065 336.952L314.569 333.377 318.859 329.182 322.355 332.757C322.741 333.152 323.374 333.159 323.769 332.773 324.164 332.387 324.171 331.753 323.785 331.359L320.289 327.784 324.579 323.589 328.075 327.164C328.461 327.559 329.094 327.566 329.489 327.18 329.884 326.794 329.891 326.16 329.505 325.766L321.115 317.186C320.729 316.791 320.096 316.784 319.701 317.17 319.306 317.556 319.299 318.189 319.685 318.584L323.181 322.159 318.891 326.354 315.395 322.779C315.009 322.384 314.376 322.377 313.981 322.763 313.586 323.149 313.579 323.782 313.965 324.177L317.461 327.752 313.171 331.947 309.675 328.372C309.289 327.977 308.656 327.97 308.261 328.356 307.866 328.742 307.859 329.375 308.245 329.77L311.741 333.345 307.451 337.54 303.955 333.965C303.569 333.57 302.936 333.563 302.541 333.949 302.146 334.335 302.139 334.968 302.525 335.363L306.021 338.938 301.731 343.133 298.235 339.558C297.849 339.163 297.216 339.156 296.821 339.542 296.426 339.928 296.419 340.561 296.805 340.956L305.195 349.536C305.581 349.931 306.214 349.938 306.609 349.552Z"/></g></g></g></g></svg>