<svg width="96" height="96" xmlns="http://www.w3.org/2000/svg" xmlns:xlink="http://www.w3.org/1999/xlink" xml:space="preserve" overflow="hidden"><g transform="translate(-519 -285)"><path d="M567.002 295.003C546.01 294.998 528.988 312.012 528.983 333.005 528.978 353.997 545.992 371.019 566.985 371.024 587.978 371.029 604.999 354.015 605.004 333.022 605.004 333.019 605.004 333.016 605.004 333.013 605.016 312.032 588.017 295.014 567.036 295.003 567.025 295.003 567.013 295.003 567.002 295.003ZM569.153 333.321C573.397 331.356 577.885 329.965 582.496 329.185 580.216 348.773 572.541 361.613 566.37 369.008 561.827 368.935 557.34 367.999 553.148 366.247 562.433 356.549 567.951 345.208 569.153 333.321ZM584.549 328.885C588.705 328.358 592.906 328.29 597.076 328.683 596.128 341.196 592.142 353.289 585.464 363.914 580.464 366.918 574.806 368.652 568.982 368.967 575.176 361.12 582.416 348.133 584.549 328.885ZM568.328 331.5C568.101 331.346 567.858 331.182 567.586 331 563.453 328.367 559.712 325.164 556.475 321.484 563.136 318.604 579.954 311.857 598.318 315.282 600.455 319.035 601.894 323.144 602.566 327.41 584.847 324.346 573.118 329.337 568.328 331.5ZM596.925 313.015C578.176 310.123 561.385 317.162 555.161 319.874 553.119 317.255 551.39 314.407 550.009 311.387 549.786 310.907 549.586 310.434 549.38 309.958 559.887 303.64 572.073 301.024 585.626 302.206 590.133 304.945 593.989 308.634 596.925 313.015ZM581.213 299.955C569.789 299.491 558.473 302.315 548.607 308.092 547.953 306.433 547.394 304.788 546.925 303.137 557.066 296.302 569.987 295.096 581.217 299.936 581.244 299.947 581.241 299.955 581.213 299.955ZM545.203 304.38C546.008 307.064 547.007 309.685 548.192 312.224 553.592 324.031 562.292 329.86 566.472 332.661 566.724 332.829 566.951 332.982 567.162 333.126 566.638 338.217 565.317 343.194 563.248 347.876 557.064 343.253 542.762 332.095 536.505 313.911 538.812 310.24 541.758 307.012 545.203 304.38ZM535.188 316.182C542.024 334.298 556.424 345.285 562.386 349.729 560.479 353.624 558.137 357.29 555.406 360.659 545.403 353.482 537.083 344.212 531.025 333.494L531.013 333.501C531.011 333.338 531 333.177 531 333.013 530.995 327.145 532.433 321.365 535.188 316.182ZM531.377 338.023C537.359 347.454 545.081 355.661 554.132 362.205 553.209 363.28 552.231 364.332 551.217 365.37 540.477 360.108 533.04 349.87 531.358 338.03 531.354 338.004 531.363 338.001 531.377 338.023ZM589.475 361.091C594.91 351.162 598.179 340.194 599.064 328.909 600.288 329.06 601.54 329.246 602.829 329.481 602.943 330.644 603.004 331.821 603.004 333.013 603.004 343.944 598.03 354.281 589.49 361.104 589.468 361.122 589.461 361.116 589.475 361.091Z"/></g></svg>